<svg xmlns="http://www.w3.org/2000/svg" width="129" height="128" viewBox="0 0 129 128" fill="none">
  <g clip-path="url(#clip0_974_12012)">
    <path d="M64.3555 128C29.0648 128 0.355469 99.2907 0.355469 64C0.355469 28.7093 29.0648 0 64.3555 0C99.6461 0 128.355 28.7093 128.355 64C128.355 99.2907 99.6461 128 64.3555 128ZM64.3555 5.33333C32.0088 5.33333 5.6888 31.6533 5.6888 64C5.6888 96.3467 32.0088 122.667 64.3555 122.667C96.7021 122.667 123.022 96.3467 123.022 64C123.022 31.6533 96.7021 5.33333 64.3555 5.33333Z" fill="url(#paint0_angular_974_12012)"/>
    <path d="M57.6587 82.2979C56.9512 82.298 56.2724 82.018 55.7707 81.5192L37.104 62.8526C36.6183 62.3496 36.3495 61.676 36.3556 60.9768C36.3616 60.2776 36.6421 59.6088 37.1365 59.1144C37.6309 58.62 38.2998 58.3395 38.999 58.3334C39.6982 58.3274 40.3718 58.5961 40.8747 59.0819L57.6534 75.8606L87.7654 45.7486C88.2683 45.2628 88.9419 44.994 89.6411 45.0001C90.3403 45.0062 91.0091 45.2866 91.5036 45.781C91.998 46.2755 92.2784 46.9443 92.2845 47.6435C92.2906 48.3427 92.0218 49.0163 91.536 49.5192L59.536 81.5192C59.2903 81.7669 58.9977 81.9632 58.6755 82.0969C58.3532 82.2305 58.0076 82.2989 57.6587 82.2979Z" fill="#091DF6" fill-opacity="0.984314"/>
  </g>
  <defs>
    <radialGradient id="paint0_angular_974_12012" cx="0" cy="0" r="1" gradientUnits="userSpaceOnUse" gradientTransform="translate(64.3555 64) rotate(-90) scale(61.5)">
      <stop stop-color="#091DF6" stop-opacity="0"/>
      <stop offset="1" stop-color="#091DF6"/>
    </radialGradient>
    <clipPath id="clip0_974_12012">
      <rect x="0.355469" width="128" height="128" rx="20" fill="white"/>
    </clipPath>
  </defs>
</svg>